# xmcd
#
# Track frame offsets:
#	150
#	14296
#	30560
#	43953
#	58680
#	71847
#	87051
#	103081
#	117360
#	133159
#	145329
#	158833
#	172407
#	184284
#	200057
#	216578
#	232093
#	246644
#
# Disc length: 3499 seconds
#
# Revision: 1868785011
# Processed by: cddbd v1.5.2PL0 Copyright (c) Steve Scherf et al.
# Submitted via: EZCDAudioConverter 8.3.2.1
#
DISCID=250da912
DTITLE=區瑞強 - 區瑞強 (環球萃取K2HD升級精選)  DE-Magnetic (EZ-WAV)
DYEAR=2016
DGENRE=World Pop
TTITLE0=陌上歸人
TTITLE1=漁火閃閃
TTITLE2=雲外千峰
TTITLE3=愛在陽光空氣中
TTITLE4=少年夢
TTITLE5=曲終人散
TTITLE6=兩小無知
TTITLE7=教堂鐘聲
TTITLE8=客從何處來
TTITLE9=愛神的影子 (沈雁合唱)
TTITLE10=水霞
TTITLE11=那天再重聚
TTITLE12=相識在童年
TTITLE13=靚歌伴星河
TTITLE14=青蔥
TTITLE15=原野的我
TTITLE16=輕歌伴早晨
TTITLE17=擁抱大自然
EXTD=
EXTT0=
EXTT1=
EXTT2=
EXTT3=
EXTT4=
EXTT5=
EXTT6=
EXTT7=
EXTT8=
EXTT9=
EXTT10=
EXTT11=
EXTT12=
EXTT13=
EXTT14=
EXTT15=
EXTT16=
EXTT17=
PLAYORDER=
